<svg width="23" height="28" viewBox="0 0 23 28" fill="none" xmlns="http://www.w3.org/2000/svg">
<g clip-path="url(#clip0_1_18065)">
<path d="M2.89196 24.0588C3.90895 25.5227 5.29949 27.5246 7.09357 27.5246V27.5211H7.18498C7.86984 27.4776 8.53946 27.2984 9.15543 26.9937H9.17267C9.95229 26.6125 10.8069 26.4127 11.6735 26.409C12.5034 26.4181 13.3208 26.6134 14.0664 26.9807H14.0716C14.6946 27.2969 15.38 27.4685 16.0774 27.4828H16.1792C17.9841 27.4559 19.1378 25.939 20.3451 24.1092C21.1739 22.9141 21.8163 21.5983 22.25 20.2075V20.2005C21.5704 19.9122 20.9494 19.4998 20.4184 18.9842C19.832 18.4267 19.3666 17.7529 19.0513 17.0053C18.7361 16.2577 18.578 15.4524 18.5868 14.6402C18.6038 13.586 18.8836 12.553 19.4003 11.636C19.9169 10.719 20.654 9.9477 21.5438 9.3926C20.9766 8.57764 20.2289 7.90687 19.3599 7.43338C18.4909 6.95989 17.5245 6.69667 16.537 6.66456C16.3724 6.64979 16.2249 6.64197 16.0989 6.64197C15.0096 6.71093 13.9425 6.98375 12.9523 7.44648H12.9316C12.4223 7.69522 11.8757 7.85727 11.3139 7.92606C10.7214 7.86283 10.1448 7.69428 9.61074 7.42824H9.59177C8.73578 7.01893 7.80992 6.77858 6.86419 6.72016H6.78658C5.63538 6.75664 4.51323 7.09318 3.52964 7.69693C2.54603 8.30068 1.73459 9.15102 1.17449 10.1649C0.0454163 12.3999 -0.282374 14.9594 0.246607 17.4099C0.663483 19.7824 1.5618 22.0426 2.88536 24.0493L2.89196 24.0588Z" fill="white"/>
<path d="M11.1 6.344C11.1889 6.35197 11.2781 6.35546 11.3674 6.35443C12.0995 6.31719 12.8157 6.12494 13.4691 5.79023C14.1225 5.4555 14.6987 4.98583 15.1599 4.41178C16.1822 3.18276 16.6844 1.59846 16.5586 0C15.0035 0.163702 13.5668 0.911959 12.535 2.09555C11.5165 3.26402 11.0004 4.79218 11.1 6.344Z" fill="white"/>
</g>
<defs>
<clipPath id="clip0_1_18065">
<rect width="23" height="28" fill="white"/>
</clipPath>
</defs>
</svg>
