<svg width="136" height="48" viewBox="0 0 136 48" fill="none" xmlns="http://www.w3.org/2000/svg">
<path d="M47 24.1763C47 22.5928 47.3426 21.1844 48.0277 19.9511C48.7129 18.7026 49.6645 17.7357 50.8826 17.0505C52.1159 16.3502 53.5091 16 55.0621 16C56.9654 16 58.5946 16.5024 59.9497 17.5073C61.3048 18.5122 62.2107 19.8826 62.6675 21.6183H58.3738C58.054 20.9484 57.5973 20.4383 57.0034 20.0881C56.4249 19.7379 55.7625 19.5628 55.0164 19.5628C53.8136 19.5628 52.8391 19.9815 52.0931 20.819C51.347 21.6564 50.974 22.7755 50.974 24.1763C50.974 25.5771 51.347 26.6962 52.0931 27.5336C52.8391 28.3711 53.8136 28.7898 55.0164 28.7898C55.7625 28.7898 56.4249 28.6147 57.0034 28.2645C57.5973 27.9143 58.054 27.4042 58.3738 26.7343H62.6675C62.2107 28.47 61.3048 29.8404 59.9497 30.8453C58.5946 31.835 56.9654 32.3298 55.0621 32.3298C53.5091 32.3298 52.1159 31.9872 50.8826 31.3021C49.6645 30.6017 48.7129 29.6348 48.0277 28.4015C47.3426 27.1682 47 25.7598 47 24.1763ZM68.9646 21.5955C69.4214 20.8951 69.9924 20.347 70.6776 19.9511C71.3627 19.54 72.124 19.3344 72.9615 19.3344V23.4683H71.888C70.9136 23.4683 70.1827 23.6815 69.6955 24.1078C69.2083 24.5189 68.9646 25.2497 68.9646 26.3003V32.2156H65.0592V19.4715H68.9646V21.5955ZM87.8464 19.4715L79.8528 38.268H75.6504L78.5738 31.7817L73.3893 19.4715H77.7516L80.6978 27.4423L83.6212 19.4715H87.8464ZM93.1644 21.2758C93.5444 20.6819 94.0704 20.2023 94.7404 19.8369C95.4104 19.4715 96.1944 19.2888 97.0924 19.2888C98.1434 19.2888 99.0944 19.5552 99.9474 20.0881C100.8 20.621 101.47 21.3823 101.957 22.372C102.459 23.3617 102.71 24.5113 102.71 25.8207C102.71 27.1301 102.459 28.2873 101.957 29.2922C101.47 30.2819 100.8 31.0508 99.9474 31.599C99.0944 32.1319 98.1434 32.3983 97.0924 32.3983C96.2094 32.3983 95.4254 32.2156 94.7404 31.8502C94.0704 31.4848 93.5444 31.0128 93.1644 30.4342V38.2908H89.2587V19.4715H93.1644V21.2758ZM98.7364 25.8207C98.7364 24.8462 98.4624 24.0849 97.9144 23.5368C97.3814 22.9735 96.7194 22.6918 95.9274 22.6918C95.1514 22.6918 94.4884 22.9735 93.9404 23.5368C93.4074 24.1002 93.1414 24.8691 93.1414 25.8436C93.1414 26.818 93.4074 27.5869 93.9404 28.1503C94.4884 28.7136 95.1514 28.9953 95.9274 28.9953C96.7044 28.9953 97.3664 28.7136 97.9144 28.1503C98.4624 27.5717 98.7364 26.7952 98.7364 25.8207ZM111.862 28.904V32.2156H109.875C108.459 32.2156 107.355 31.873 106.564 31.1879C105.772 30.4875 105.376 29.3531 105.376 27.7849V22.7146H103.823V19.4715H105.376V16.3654H109.281V19.4715H111.839V22.7146H109.281V27.8305C109.281 28.2112 109.373 28.4853 109.556 28.6527C109.738 28.8202 110.043 28.904 110.469 28.904H111.862ZM119.839 32.3983C118.59 32.3983 117.464 32.1319 116.459 31.599C115.469 31.0661 114.685 30.3048 114.106 29.3151C113.543 28.3254 113.261 27.1682 113.261 25.8436C113.261 24.5341 113.55 23.3846 114.129 22.3949C114.708 21.39 115.499 20.621 116.504 20.0881C117.509 19.5552 118.636 19.2888 119.884 19.2888C121.133 19.2888 122.26 19.5552 123.265 20.0881C124.27 20.621 125.061 21.39 125.64 22.3949C126.218 23.3846 126.508 24.5341 126.508 25.8436C126.508 27.153 126.211 28.3102 125.617 29.3151C125.038 30.3048 124.239 31.0661 123.219 31.599C122.214 32.1319 121.087 32.3983 119.839 32.3983ZM119.839 29.0182C120.585 29.0182 121.217 28.7441 121.734 28.196C122.267 27.6478 122.534 26.8637 122.534 25.8436C122.534 24.8234 122.275 24.0393 121.757 23.4911C121.255 22.943 120.631 22.6689 119.884 22.6689C119.123 22.6689 118.491 22.943 117.989 23.4911C117.486 24.024 117.235 24.8082 117.235 25.8436C117.235 26.8637 117.479 27.6478 117.966 28.196C118.468 28.7441 119.093 29.0182 119.839 29.0182Z" fill="white"/>
<g clip-path="url(#clip0_100_1379)">
<g clip-path="url(#clip1_100_1379)">
<path d="M24.1289 28.2175C24.0604 28.0421 17.9866 16.5089 17.8953 16.3335C17.5756 15.588 17.0048 14.9521 16.2512 14.5136C14.356 13.4611 11.9357 14.0751 10.8396 15.8949C10.0861 17.1447 10.1318 18.6138 10.8625 19.7759C10.931 19.9294 16.7307 30.9802 16.8449 31.1556C16.9134 31.331 17.0048 31.4845 17.0961 31.6599C17.4158 32.4054 17.9866 33.0413 18.7401 33.4798C20.6353 34.5322 23.0557 33.9402 24.1517 32.1203C24.9281 30.8706 24.8596 29.3796 24.1289 28.2175Z" fill="white" fill-opacity="0.4"/>
<path d="M17.4462 20.41C18.1146 19.7295 18.5294 18.8074 18.5294 17.7975C18.5294 15.7119 16.7548 13.9995 14.5424 13.9995C13.1826 13.9995 11.9842 14.6362 11.2698 15.6241C11.1315 15.7558 1.19842 27.4353 1.08319 27.589C0.414838 28.2695 0 29.1916 0 30.2015C0 32.3091 1.79763 33.9995 3.98705 33.9995C5.3468 33.9995 6.54522 33.3628 7.25966 32.3749C7.39794 32.2212 17.354 20.5637 17.4462 20.41Z" fill="white"/>
<path d="M33.9183 20.41C34.5858 19.7295 35.0001 18.8074 35.0001 17.7975C35.0001 15.69 33.2047 13.9995 31.018 13.9995C29.66 13.9995 28.463 14.6362 27.7495 15.6241C27.6114 15.7558 17.6676 27.4353 17.5525 27.589C16.885 28.2695 16.4707 29.1916 16.4707 30.2015C16.4707 32.3091 18.2661 33.9995 20.4528 33.9995C21.8109 33.9995 23.0078 33.3628 23.7213 32.3749C23.8825 32.2212 33.8032 20.5637 33.9183 20.41Z" fill="white"/>
</g>
</g>
<defs>
<clipPath id="clip0_100_1379">
<rect width="35" height="20" fill="white" transform="translate(0 14)"/>
</clipPath>
<clipPath id="clip1_100_1379">
<rect width="35" height="20" fill="white" transform="translate(0 14)"/>
</clipPath>
</defs>
</svg>
