<svg width="35" height="20" viewBox="0 0 35 20" fill="none" xmlns="http://www.w3.org/2000/svg">
<g clip-path="url(#clip0_1_28115)">
<g clip-path="url(#clip1_1_28115)">
<path d="M24.1286 14.2175C24.0601 14.0421 17.9864 2.50887 17.895 2.33346C17.5754 1.58797 17.0045 0.952111 16.251 0.513586C14.3558 -0.538873 11.9354 0.0750619 10.8394 1.89494C10.0859 3.14473 10.1316 4.61379 10.8622 5.77588C10.9307 5.92937 16.7305 16.9802 16.8447 17.1556C16.9132 17.331 17.0045 17.4845 17.0958 17.6599C17.4155 18.4054 17.9864 19.0413 18.7399 19.4798C20.6351 20.5322 23.0555 19.9402 24.1515 18.1203C24.9278 16.8706 24.8593 15.3796 24.1286 14.2175Z" fill="white" fill-opacity="0.4"/>
<path d="M17.4462 6.41005C18.1146 5.72948 18.5294 4.80742 18.5294 3.79754C18.5294 1.71192 16.7548 -0.000488281 14.5424 -0.000488281C13.1826 -0.000488281 11.9842 0.636175 11.2698 1.6241C11.1315 1.75582 1.19842 13.4353 1.08319 13.589C0.414838 14.2695 0 15.1916 0 16.2015C0 18.3091 1.79763 19.9995 3.98705 19.9995C5.3468 19.9995 6.54522 19.3628 7.25966 18.3749C7.39794 18.2212 17.354 6.56373 17.4462 6.41005Z" fill="white"/>
<path d="M33.9183 6.41005C34.5858 5.72948 35.0001 4.80742 35.0001 3.79754C35.0001 1.68996 33.2047 -0.000488281 31.018 -0.000488281C29.66 -0.000488281 28.463 0.636175 27.7495 1.6241C27.6114 1.75582 17.6676 13.4353 17.5525 13.589C16.885 14.2695 16.4707 15.1916 16.4707 16.2015C16.4707 18.3091 18.2661 19.9995 20.4528 19.9995C21.8109 19.9995 23.0078 19.3628 23.7213 18.3749C23.8825 18.2212 33.8032 6.56373 33.9183 6.41005Z" fill="white"/>
</g>
</g>
<defs>
<clipPath id="clip0_1_28115">
<rect width="35" height="20" fill="white"/>
</clipPath>
<clipPath id="clip1_1_28115">
<rect width="35" height="20" fill="white"/>
</clipPath>
</defs>
</svg>
